<svg data-name="Livello 2" version="1.1" viewBox="0 0 103.07 141.96" xmlns="http://www.w3.org/2000/svg">
 <defs>
  <style>.cls-1 {
        font-family: AzonixRegular, Azonix;
        font-size: 137.42px;
      }

      .cls-1, .cls-2 {
        fill: #081525;
      }</style>
 </defs>
 <g>
  <path transform="translate(0,116.81)" d="m51.532-96.194c-26.522 0-48.097 21.575-48.097 48.097 0 26.522 21.575 48.097 48.097 48.097 26.522 0 48.097-21.575 48.097-48.097 0-26.522-21.575-48.097-48.097-48.097zm0 79.016c-17.04 0-30.919-13.879-30.919-30.919 0-17.04 13.879-30.92 30.919-30.92 17.04 0 30.92 13.879 30.92 30.92 0 17.04-13.879 30.919-30.92 30.919z" fill="#081525"/>
  <path class="cls-2" d="m60.88 77.88c-5.29-5.29-13.88-5.29-19.17 0 5.29-5.29 5.29-13.88 0-19.17 5.29 5.29 13.88 5.29 19.17 0-5.29 5.29-5.29 13.88 0 19.17z"/>
 </g>
</svg>
