<svg data-name="Livello 2" version="1.1" viewBox="0 0 420.72 114.02" xmlns="http://www.w3.org/2000/svg">
 <defs>
  <style>.cls-1 {
        font-family: PROJECTSPACE, 'PROJECT SPACE';
        font-size: 29.75px;
      }

      .cls-1, .cls-2, .cls-3 {
        fill: #081525;
      }

      .cls-2 {
        font-family: AzonixRegular, Azonix;
        font-size: 78.57px;
      }</style>
 </defs>
 <g>
  <path class="cls-3" d="m35.25 44.29c-2.96-2.96-7.77-2.96-10.73 0 2.96-2.96 2.96-7.77 0-10.73 2.96 2.96 7.77 2.96 10.73 0-2.96 2.96-2.96 7.77 0 10.73z"/>
  <g fill="#081525">
   <g class="cls-2" transform="translate(0 66.78)" aria-label="ORIGINIUM">
    <path d="m29.464-54.999c-15.164 0-27.5 12.335-27.5 27.5s12.335 27.5 27.5 27.5 27.5-12.335 27.5-27.5-12.335-27.5-27.5-27.5zm0 45.178c-9.7427 0-17.678-7.9356-17.678-17.678s7.9356-17.678 17.678-17.678 17.678 7.9356 17.678 17.678-7.9356 17.678-17.678 17.678z"/>
    <path d="m99.391-25.378c1.4928-0.15714 2.9071-0.54999 4.2428-1.1786 5.107-2.3571 8.6427-7.5427 8.6427-13.514 0-4.0856-1.65-7.7784-4.3214-10.528-2.6714-2.6714-6.3642-4.3214-10.45-4.3214h-34.728v54.999h9.8212v-25.3h9.8212c3.5356 0 6.5999 1.8857 8.3284 4.7142l0.23571 0.47142 5.2642 10.293 5.0285 9.8212h11l-5.0285-9.8212zm-26.792-9.5855v-10.136h24.907c1.7285 0 2.9071 0.7857 3.5357 1.4143 0.54999 0.54999 1.4928 1.8071 1.4928 3.6142 0 1.9642-1.1786 3.7714-2.9857 4.5571-0.62856 0.31428-1.3357 0.47142-2.0428 0.47142z"/>
    <path d="m130.03 0v-54.999h-9.8212v54.999z"/>
    <path d="m165.39-45.178h27.5v-9.8212h-27.5c-15.164 0-27.5 12.335-27.5 27.5s12.335 27.5 27.5 27.5h27.5v-30.171h-27.5v9.8212h17.678v10.528h-17.678c-9.7427 0-17.678-7.9356-17.678-17.678s7.9356-17.678 17.678-17.678z"/>
    <path d="m210.57 0v-54.999h-9.8212v54.999z"/>
    <path d="m263.6-54.999v35.042l-35.356-27.264-9.8212-7.5427v54.842h9.8212v-34.807l35.356 27.264 9.8212 7.5427v-54.999z"/>
    <path d="m291.1 0v-54.999h-9.8212v54.999z"/>
    <path d="m344.14-54.999v27.5c0 9.7427-7.9356 17.678-17.678 17.678s-17.678-7.9356-17.678-17.678v-27.5h-9.8212v27.5c0 15.164 12.335 27.5 27.5 27.5s27.5-12.335 27.5-27.5v-27.5z"/>
    <path d="m406.99-47.456-17.678 13.593-17.678-13.593-9.8212-7.5427v54.999h9.8212v-35.042l9.6641 7.3856 8.0141 6.207 8.0141-6.207 9.6641-7.3856v35.042h9.8212v-54.999z"/>
   </g>
   <g class="cls-1" transform="translate(2 106.4)" aria-label="SIMULATIONS">
    <path d="m35.611 0c3.213 0 5.831-2.618 5.831-5.831 0-3.2428-2.618-5.8608-5.831-5.8608h-26.805c-1.8148 0-3.3022-1.4578-3.3022-3.3022 0-1.8148 1.4875-3.3022 3.3022-3.3022h31.356v-2.5288h-31.356c-3.213 0-5.831 2.618-5.831 5.831 0 3.2428 2.618 5.8608 5.831 5.8608h26.805c1.8148 0 3.3022 1.4578 3.3022 3.3022 0 1.8148-1.4875 3.3022-3.3022 3.3022h-31.356v2.5288z"/>
    <path d="m47.392 0h2.5288v-20.825h-2.5288z"/>
    <path d="m93.772-20.825-18.951 14.696-18.921-14.696v20.825h2.499v-15.708l16.422 12.763 16.452-12.763v15.708h2.499z"/>
    <path d="m135.57-20.825v18.296h-25.436c-4.3435 0-7.8838-3.5402-7.8838-7.8838v-10.412h-2.5287v10.412c0 5.7418 4.6707 10.412 10.412 10.412h27.965v-20.825z"/>
    <path d="m182.55 0v-2.5288h-28.054c-4.3435 0-7.8838-3.5402-7.8838-7.8838v-10.412h-2.5288v10.412c0 5.7418 4.6708 10.412 10.412 10.412z"/>
    <path d="m198.88-20.825c-5.712 0-10.383 4.6708-10.383 10.383v10.442h2.5288v-6.6938h33.29v6.6938h2.5288v-10.442c0-5.712-4.641-10.383-10.383-10.383zm-7.854 10.383c0-4.3138 3.5402-7.854 7.854-7.854h17.582c4.3435 0 7.854 3.5402 7.854 7.854v1.2198h-33.29z"/>
    <path d="m232.82-20.825v2.5585h18.177v18.266h2.5585v-18.266h18.177v-2.5585z"/>
    <path d="m277.72 0h2.5288v-20.825h-2.5288z"/>
    <path d="m314.25 0c5.7418 0 10.412-4.6708 10.412-10.412s-4.6708-10.412-10.412-10.412h-17.612c-5.7418 0-10.412 4.6708-10.412 10.412s4.6708 10.412 10.412 10.412zm0-18.296c4.3435 0 7.8838 3.5402 7.8838 7.8838s-3.5402 7.8838-7.8838 7.8838h-17.612c-4.3435 0-7.8838-3.5402-7.8838-7.8838s3.5402-7.8838 7.8838-7.8838z"/>
    <path d="m366.43-20.825v16.72l-35.819-16.72v20.825h2.5288v-16.838l35.819 16.72v-20.706z"/>
    <path d="m407.55 0c3.213 0 5.831-2.618 5.831-5.831 0-3.2428-2.618-5.8608-5.831-5.8608h-26.805c-1.8148 0-3.3022-1.4578-3.3022-3.3022 0-1.8148 1.4875-3.3022 3.3022-3.3022h31.356v-2.5288h-31.356c-3.213 0-5.831 2.618-5.831 5.831 0 3.2428 2.618 5.8608 5.831 5.8608h26.805c1.8148 0 3.3022 1.4578 3.3022 3.3022 0 1.8148-1.4875 3.3022-3.3022 3.3022h-31.356v2.5288z"/>
   </g>
  </g>
 </g>
</svg>
